<svg id="e7f1xIaQbmv1" xmlns="http://www.w3.org/2000/svg" xmlns:xlink="http://www.w3.org/1999/xlink" viewBox="0 0 75 75" shape-rendering="geometricPrecision" text-rendering="geometricPrecision" style="background-color:transparent">
<style><![CDATA[
#e7f1xIaQbmv6_to {animation: e7f1xIaQbmv6_to__to 800ms linear infinite normal forwards}@keyframes e7f1xIaQbmv6_to__to { 0% {transform: translate(47.969999px,92.040005px)} 12.5% {transform: translate(49.969998px,91.041536px)} 37.5% {transform: translate(48.969998px,95.041536px)} 50% {transform: translate(47.969998px,92.040004px)} 62.5% {transform: translate(46.969998px,88.041536px)} 87.5% {transform: translate(42.969998px,90.041536px)} 98.75% {transform: translate(47.469998px,91.840157px)} 100% {transform: translate(47.469998px,91.840157px)}} #e7f1xIaQbmv6_tr {animation: e7f1xIaQbmv6_tr__tr 800ms linear infinite normal forwards}@keyframes e7f1xIaQbmv6_tr__tr { 0% {transform: rotate(0deg)} 98.75% {transform: rotate(0deg)} 100% {transform: rotate(0deg)}} #e7f1xIaQbmv7_to {animation: e7f1xIaQbmv7_to__to 800ms linear infinite normal forwards}@keyframes e7f1xIaQbmv7_to__to { 0% {transform: translate(36.794994px,106.378967px)} 12.5% {transform: translate(33.350833px,105.958966px)} 37.5% {transform: translate(39.323647px,109.911843px)} 50% {transform: translate(36.793152px,104.380597px)} 62.5% {transform: translate(35.793152px,110.381843px)} 87.5% {transform: translate(38.793647px,105.379065px)} 98.75% {transform: translate(36.993202px,106.279065px)} 100% {transform: translate(36.993202px,106.279065px)}} #e7f1xIaQbmv7_tr {animation: e7f1xIaQbmv7_tr__tr 800ms linear infinite normal forwards}@keyframes e7f1xIaQbmv7_tr__tr { 0% {transform: rotate(0deg)} 12.5% {transform: rotate(-10deg)} 37.5% {transform: rotate(10deg)} 50% {transform: rotate(0deg)} 62.5% {transform: rotate(-10deg)} 87.5% {transform: rotate(10deg)} 98.75% {transform: rotate(1deg)} 100% {transform: rotate(1deg)}} #e7f1xIaQbmv8_to {animation: e7f1xIaQbmv8_to__to 800ms linear infinite normal forwards}@keyframes e7f1xIaQbmv8_to__to { 0% {transform: translate(55.525002px,109.095253px)} 12.5% {transform: translate(58.61px,111.76px)} 37.5% {transform: translate(55.608898px,108.761758px)} 50% {transform: translate(57.521334px,109.091581px)} 62.5% {transform: translate(57.608898px,112.76329px)} 87.5% {transform: translate(55.608898px,106.76px)} 98.75% {transform: translate(55.53009px,108.858423px)} 100% {transform: translate(55.53009px,108.858423px)}} #e7f1xIaQbmv8_tr {animation: e7f1xIaQbmv8_tr__tr 800ms linear infinite normal forwards}@keyframes e7f1xIaQbmv8_tr__tr { 0% {transform: rotate(0deg)} 12.5% {transform: rotate(10deg)} 37.5% {transform: rotate(-10deg)} 50% {transform: rotate(0deg)} 62.5% {transform: rotate(10deg)} 87.5% {transform: rotate(-10deg)} 98.75% {transform: rotate(-1deg)} 100% {transform: rotate(-1deg)}}
]]></style>
<g transform="matrix(.866025 0.5-.5 0.866025 50.862154-73.381318)"><g transform="translate(.000002 0.00001)"><g><g id="e7f1xIaQbmv6_to" transform="translate(47.969999,92.040005)"><g id="e7f1xIaQbmv6_tr" transform="rotate(0)"><circle r="4.2" transform="translate(0.000002,-0.000004)" fill="#d8d8d8"/></g></g><g id="e7f1xIaQbmv7_to" transform="translate(36.794994,106.378967)"><g id="e7f1xIaQbmv7_tr" transform="rotate(0)"><path d="M45.07,101.33c-.39-.46-1.04-.62-1.61-.43l-3.78,1.26c-.52.17-1.08-.11-1.25-.62l-1.27-3.78c-.19-.57-.71-1-1.32-1.03-1.49-.09-2.96.4-4.1,1.37-.46.39-.62,1.04-.43,1.61l1.27,3.78c.17.52-.11,1.08-.63,1.25L28.17,106c-.58.19-1,.71-1.03,1.32-.08,1.49.41,2.96,1.37,4.1.39.46,1.04.62,1.62.43l3.78-1.26c.52-.17,1.08.11,1.26.63L36.43,115c.19.58.71,1,1.32,1.03c1.49.08,2.95-.41,4.1-1.37.46-.39.62-1.04.43-1.62l-1.26-3.78c-.17-.52.11-1.08.62-1.25l3.78-1.26c.57-.19.99-.71,1.03-1.32.08-1.49-.41-2.96-1.38-4.1Zm-7.41,7.64c-1.43.48-2.98-.29-3.45-1.72-.48-1.43.29-2.98,1.72-3.46s2.98.29,3.46,1.72-.3,2.98-1.73,3.46Z" transform="translate(-36.794994,-106.378967)" fill="#d8d8d8"/></g></g><g id="e7f1xIaQbmv8_to" transform="translate(55.525002,109.095253)"><g id="e7f1xIaQbmv8_tr" transform="rotate(0)"><path d="M54.04,115.65v0c-2.04-.46-3.33-2.5-2.86-4.54l1.29-5.71c.46-2.04,2.5-3.33,4.54-2.86v0c2.04.46,3.33,2.5,2.86,4.54l-1.29,5.71c-.47,2.05-2.5,3.33-4.54,2.86Z" transform="translate(-55.525002,-109.095253)" fill="#d8d8d8"/></g></g></g></g></g></svg>
