<?xml version="1.0" encoding="utf-8"?>
<!-- Generator: Adobe Illustrator 27.2.0, SVG Export Plug-In . SVG Version: 6.00 Build 0)  -->
<svg version="1.1" id="Layer_1" xmlns="http://www.w3.org/2000/svg" xmlns:xlink="http://www.w3.org/1999/xlink" x="0px" y="0px"
	 viewBox="0 0 675 512" xml:space="preserve" fill="#d8d8d8">
<g id="HATCH">
	<path d="M530.5,393.7c2.2-10.8-0.6-30.6-7.1-50.6c-14.2-43.3-61.7-123.8-105.2-178.6l-13.7-17.2l14.8-13.6
		c19.4-17.8,32.9-28.5,47.4-37.5c11.4-7.1,27.8-13.4,34.8-13.4c4.4,0,19.6,15.9,31.9,33.1c19.1,26.8,33.1,59.3,40.2,93.1
		c4.6,21.9,5,68.6,0.7,90.4c-3.5,17.9-10.9,41.1-18,56.8c-5.4,11.8-18.7,34.7-24.6,42.1c-2,2.6-2.4,1.1-1.3-4.4L530.5,393.7
		 M137.7,387.9c-22.4-34.3-33.7-68.1-39.1-117c-1.8-16.1-1.2-25.4,4.1-58.5c6.6-41.3,30.1-89,58.3-118.4c12-12.5,13.1-12.8,27.8-7.9
		c17.8,6,36.8,19.1,66.3,45.8l17.3,15.6l-9.4,11.5c-43.7,53.6-89.7,129.6-107,176.6c-9.4,25.5-13.2,51.2-9.1,61.8
		C149.4,404.7,146.9,402,137.7,387.9L137.7,387.9 M317.5,74.6c-20.1-10.2-51.1-21.1-68.2-24.1c-6-1-16.2-1.6-22.7-1.3
		c-14.1,0.7-13.5,0,9.2-10.7c18.9-8.9,34.6-14.1,55.9-18.6c24-5.1,69.1-5.1,92.8-0.1c25.5,5.4,55.5,16.6,72.5,27l5,3.1l-11.6-0.6
		c-22.9-1.2-56.4,8.1-92.3,25.6c-10.9,5.3-20.2,9.5-21,9.4C336.5,84,327.6,79.7,317.5,74.6L317.5,74.6 M313.6,495
		c-37-3.5-74.4-16.8-106.5-37.8c-26.9-17.6-33-24.8-33-39.2c0-29,31.8-79.7,86.3-137.5c31-32.9,74.1-71.3,78.7-70.3
		c9.1,2,81.5,72.7,108.6,105.9c42.9,52.6,62.6,95.6,52.6,114.9c-7.6,14.6-54.9,43.1-89.6,54.1C382.1,494.1,344.5,498,313.6,495
		L313.6,495L313.6,495z"/>
</g>
</svg>
