<?xml version="1.0" encoding="utf-8"?>
<!-- Generator: Adobe Illustrator 27.2.0, SVG Export Plug-In . SVG Version: 6.00 Build 0)  -->
<svg version="1.1" id="Layer_1" xmlns="http://www.w3.org/2000/svg" xmlns:xlink="http://www.w3.org/1999/xlink" x="0px" y="0px"
	 viewBox="0 0 675 512" xml:space="preserve" fill="#d8d8d8">
<g id="HATCH">
	<path d="M290.2,256.1v201.4l-40.4-0.5c-37.3-0.4-41.2-0.6-48.7-2.5c-32-8.2-55.8-32.9-62.4-65c-2.2-10-2.2-257.3-0.1-267.1
		c6-27.9,25.3-51.1,51.5-61.5c13.1-5.3,19.2-5.9,61.7-6l38.5-0.1L290.2,256.1 M200.3,17.6c-47.8,8.5-86.3,43.9-98.4,90.4
		c-4.4,16.8-4.7,26.6-4.2,156.9c0.3,119.7,0.4,122.4,2.4,131.7c11,49.8,46.4,85.3,96.7,97c6.6,1.5,14.9,1.8,68.7,2.1
		c55.7,0.4,61.4,0.3,62.9-1.2s1.6-20.7,1.6-238.1c0-161.2-0.3-237.1-1-238.5c-1-1.8-2.7-1.9-60.9-1.8
		C220.8,16.2,206.6,16.5,200.3,17.6L200.3,17.6z"/>
</g>
<g id="HATCH-2">
	<path d="M208.8,115.5c-6.3,1.2-15.8,6-20.9,10.4c-10.4,9-15.6,21.9-14.8,37c0.4,7.9,0.9,9.9,4.1,16.3c4.7,9.6,11.7,16.7,21.4,21.5
		c6.7,3.3,8.3,3.7,17,4c7.9,0.3,10.6,0,15.9-1.8c21.6-7.3,34.6-28.2,30.9-49.7C258.1,127.6,233.9,110.5,208.8,115.5L208.8,115.5z"/>
</g>
<g id="HATCH-3">
	<path d="M484.5,233.2c15.5,4.1,28.2,15.9,33.4,31c3.3,9.3,3.2,23.1-0.1,31.6c-6.1,15.7-18,26.7-33.3,30.8
		c-24.8,6.5-51.3-8.5-58.5-33.2c-2.2-7.6-2.1-20.3,0.4-28C433.8,241,459.7,226.7,484.5,233.2 M378.4,16.7
		c-0.4,0.3-0.7,108-0.7,239.4c0,216.8,0.1,238.7,1.6,239.3c2.7,1,79.8,0.6,89.3-0.4c40.3-4.6,75.9-29.1,95.3-65.6
		c2.5-4.7,5.8-12.5,7.5-17.4c6.3-18.7,6.1-13.7,6.1-156.5c0-114-0.2-131-1.6-138.2c-9.8-51.8-49.3-90.8-101.2-99.8
		c-7-1.2-17.7-1.5-52.3-1.5C398.6,16,378.7,16.3,378.4,16.7L378.4,16.7z"/>
</g>
</svg>
