<?xml version="1.0" encoding="utf-8"?>
<!-- Generator: Adobe Illustrator 27.2.0, SVG Export Plug-In . SVG Version: 6.00 Build 0)  -->
<svg version="1.1" id="Layer_1" xmlns="http://www.w3.org/2000/svg" xmlns:xlink="http://www.w3.org/1999/xlink" x="0px" y="0px"
	 viewBox="0 0 675 512" xml:space="preserve" fill="#d8d8d8">
<style type="text/css">
	.st0{fill-rule:evenodd;clip-rule:evenodd;}
</style>
<g id="HATCH">
	<path class="st0" d="M642.9,383.4c-12.1,15.3-41.9,26.3-41.9,26.3l-221.4,79.5v-58.7l162.9-58.1c18.5-6.6,21.3-16,6.3-20.9
		c-15-4.9-42.2-3.5-60.7,3.1l-108.6,38.2v-60.9l6.3-2.1c0,0,31.4-11.1,75.5-16c44.1-4.9,98.1,0.7,140.5,16.7
		C649.7,345.8,655.1,368,642.9,383.4L642.9,383.4z"/>
</g>
<g id="HATCH-2">
	<path class="st0" d="M400.7,283.5v-150c0-17.6-3.2-33.8-19.8-38.4c-12.7-4.1-20.5,7.7-20.5,25.3V496l-101.3-32.2V16
		c43.1,8,105.8,26.9,139.6,38.3c85.8,29.5,114.9,66.1,114.9,148.7C513.5,283.5,463.8,314,400.7,283.5L400.7,283.5z"/>
</g>
<g id="HATCH-3">
	<path class="st0" d="M73.2,424.4c-49.1-13.8-57.2-42.6-34.9-59.2c20.7-15.3,55.8-26.8,55.8-26.8l145.2-51.6v58.9L134.9,383
		c-18.5,6.6-21.3,16-6.3,20.9c15,4.9,42.2,3.5,60.7-3.1l50.1-18.2v52.7c-3.2,0.6-6.7,1.1-10,1.7C179.3,445.1,125.9,441.7,73.2,424.4
		L73.2,424.4L73.2,424.4z"/>
</g>
</svg>
